<?xml version="1.0" standalone="no"?>
<!DOCTYPE svg PUBLIC "-//W3C//DTD SVG 20010904//EN"
 "http://www.w3.org/TR/2001/REC-SVG-20010904/DTD/svg10.dtd">
<svg version="1.0" xmlns="http://www.w3.org/2000/svg"
 width="900.000000pt" height="900.000000pt" viewBox="0 0 900.000000 900.000000"
 preserveAspectRatio="xMidYMid meet">
<metadata>
Created by potrace 1.11, written by Peter Selinger 2001-2013
</metadata>
<g transform="translate(0.000000,900.000000) scale(0.100000,-0.100000)"
fill="#000000" stroke="none">
<path d="M0 4500 l0 -4500 4500 0 4500 0 0 2180 c0 2130 0 2182 -19 2251 -22
75 -76 199 -89 199 -10 0 -69 -154 -77 -200 -8 -45 -74 -257 -90 -290 -7 -14
-15 -42 -19 -62 -4 -21 -11 -38 -16 -38 -6 0 -10 -7 -10 -16 0 -8 -7 -22 -15
-31 -8 -8 -13 -19 -10 -24 4 -5 2 -9 -3 -9 -10 0 -42 -64 -42 -84 0 -7 -9 -21
-20 -31 -12 -10 -18 -25 -16 -32 3 -7 2 -13 -3 -13 -5 0 -12 -17 -16 -37 -4
-20 -13 -42 -21 -48 -17 -12 -22 -123 -9 -226 7 -60 5 -74 -20 -140 -16 -41
-39 -91 -52 -111 -12 -21 -23 -42 -23 -48 0 -5 -4 -10 -8 -10 -11 0 -99 -157
-107 -191 -4 -15 -19 -41 -34 -59 -24 -29 -32 -33 -75 -32 -73 2 -155 29 -189
63 l-30 30 7 87 c9 114 15 162 22 192 3 14 8 45 11 70 3 25 12 61 20 80 36 82
56 121 67 133 6 7 24 37 40 67 16 30 34 62 41 70 7 8 23 35 35 60 43 88 104
179 123 184 11 2 25 -3 35 -15 21 -25 48 -24 62 1 6 11 15 18 20 15 6 -4 7 12
4 39 -4 28 -2 51 4 59 6 7 15 31 21 52 15 60 69 215 79 228 5 7 14 33 20 60 7
26 17 68 24 95 7 26 11 53 9 61 -1 8 5 33 14 57 16 41 15 47 -4 106 -11 35
-28 91 -37 126 -17 58 -44 86 -44 43 0 -30 -40 -111 -54 -111 -8 0 -52 42 -99
93 l-86 93 -21 99 c-31 141 -35 216 -15 305 9 41 21 102 26 135 6 33 13 70 15
83 6 32 39 28 61 -8 18 -30 37 -38 48 -20 3 6 19 10 35 10 21 0 41 11 67 39
22 21 49 41 61 45 12 4 22 13 22 21 0 7 14 48 31 90 17 42 28 83 25 91 -3 8
-5 17 -5 20 0 4 -24 17 -53 31 -51 24 -59 25 -203 20 -206 -7 -244 -16 -295
-75 l-40 -47 1 35 c4 81 22 177 41 212 16 28 20 48 16 90 -3 29 -2 63 3 74 6
18 0 26 -39 52 -81 51 -107 61 -186 68 -43 4 -74 10 -69 13 4 3 9 17 11 30 2
13 12 37 21 55 20 34 17 56 -5 56 -9 0 -12 5 -8 11 3 6 1 15 -5 19 -13 7 -40
182 -41 258 0 23 5 42 10 42 6 0 10 5 10 10 0 6 -10 10 -22 10 -48 0 1 19 76
29 44 6 82 13 84 16 3 3 -25 5 -61 5 -79 0 -79 -5 5 125 32 49 58 98 58 108 0
72 -126 178 -347 290 -57 28 -103 55 -103 58 0 7 31 12 165 28 44 5 111 15
149 21 50 9 78 10 100 2 44 -15 165 -12 205 4 39 16 54 18 28 3 -13 -8 -15
-14 -7 -29 5 -10 10 -28 10 -39 0 -12 4 -21 8 -21 5 0 7 -13 4 -29 -2 -15 3
-42 12 -58 11 -21 12 -33 4 -41 -6 -6 -10 -49 -9 -105 2 -87 0 -97 -20 -116
-13 -11 -19 -24 -16 -28 10 -10 353 18 775 63 l62 7 0 273 0 274 -40 0 c-22 0
-40 5 -40 10 0 6 5 10 12 10 31 0 -8 14 -45 16 -23 1 -55 5 -72 9 -37 9 -96
11 -155 5 -45 -5 -45 -5 -68 40 -33 67 -30 105 15 146 20 19 42 34 49 34 7 0
14 4 16 10 2 5 34 12 71 14 59 4 67 3 57 -9 -16 -19 -5 -45 18 -45 11 0 25 -7
32 -15 7 -8 19 -15 26 -15 8 0 11 -6 8 -15 -4 -10 0 -15 15 -15 13 0 25 -9 30
-24 9 -23 29 -36 57 -36 12 0 14 52 14 330 0 323 0 330 -20 330 -11 0 -20 -4
-20 -10 0 -5 -6 -10 -12 -10 -7 0 -26 -8 -43 -17 -23 -12 -59 -16 -157 -17
-69 -1 -130 -4 -134 -8 -9 -10 -70 -10 -102 -2 -15 4 -21 12 -18 21 4 11 -3
13 -31 11 -58 -5 -61 11 -65 286 -4 219 1 262 17 164 7 -42 19 -48 35 -18 9
16 8 18 -5 14 -11 -5 -15 1 -15 22 0 19 3 25 9 16 6 -10 57 -12 244 -7 229 5
297 -1 282 -25 -3 -5 -2 -10 3 -10 5 0 14 -15 20 -32 8 -27 10 -14 11 80 l1
112 -299 0 -300 0 -4 -22 -4 -23 -2 23 -1 22 -634 0 -635 0 -4 -37 -4 -38 -1
38 -2 37 -1359 0 -1360 0 -4 -42 -4 -43 -1 43 c-2 38 -5 42 -27 42 -23 0 -25
-4 -25 -44 0 -39 3 -45 31 -56 22 -9 33 -10 38 -2 3 6 24 12 46 14 34 3 44 -2
77 -34 21 -21 38 -33 38 -28 0 16 20 11 53 -12 18 -13 52 -32 77 -44 25 -12
54 -31 64 -43 11 -11 25 -21 32 -21 7 0 21 -11 32 -25 11 -14 29 -25 40 -25
25 0 50 -24 68 -65 7 -16 13 -26 14 -20 0 5 18 -10 40 -33 23 -23 42 -42 44
-42 2 0 24 -20 49 -44 34 -32 43 -46 34 -55 -6 -6 -18 -11 -26 -11 -23 0 0
-19 29 -24 14 -2 27 -5 30 -6 3 -2 7 -2 10 -2 3 0 11 -7 19 -15 12 -13 11 -14
-8 -8 -22 7 -22 6 -6 -18 10 -15 22 -24 31 -20 8 3 14 1 14 -4 0 -5 7 -18 16
-29 14 -18 15 -18 8 5 -5 19 -3 23 10 18 8 -3 18 -1 22 4 3 6 15 -3 26 -21 15
-25 16 -35 7 -46 -9 -11 -7 -14 9 -14 11 0 27 -11 36 -25 9 -14 23 -25 30 -25
8 0 53 -39 101 -86 90 -89 99 -86 44 13 -22 39 -27 59 -23 82 4 19 2 31 -4 31
-6 0 -14 9 -17 21 -4 11 -9 18 -12 16 -2 -3 3 -19 11 -36 18 -34 19 -41 8 -41
-4 0 -13 21 -20 48 -7 26 -17 63 -22 82 -6 19 -56 128 -113 243 -56 114 -101
207 -99 207 8 0 32 -29 32 -39 0 -6 5 -11 11 -11 5 0 16 -15 24 -33 7 -18 23
-41 34 -51 11 -10 18 -23 14 -29 -3 -6 -1 -7 5 -3 19 11 14 31 -13 56 -27 26
-27 34 -1 24 10 -4 22 -18 27 -31 5 -13 13 -21 19 -18 15 10 12 35 -5 35 -8 0
-15 5 -15 11 0 7 10 9 25 5 13 -3 44 -1 67 5 51 14 150 12 159 -3 4 -6 9 -7
13 0 9 14 11 114 2 140 -4 13 -3 22 3 22 5 0 13 -16 16 -35 3 -19 8 -52 11
-72 3 -21 8 -50 10 -65 2 -16 6 -40 8 -55 12 -70 46 -340 46 -361 0 -15 -8
-26 -25 -32 -15 -6 -23 -15 -19 -24 4 -11 -6 -13 -55 -10 -33 2 -63 -1 -66 -6
-4 -6 -15 -10 -26 -10 -10 0 -19 -2 -19 -4 0 -2 18 -43 41 -92 22 -49 47 -105
55 -124 8 -19 22 -47 30 -62 26 -48 7 -30 -26 24 -60 97 -177 205 -335 310
-22 14 -50 29 -62 33 -12 3 -25 15 -28 26 -4 11 -9 18 -12 16 -6 -6 -44 10
-190 79 -63 30 -117 54 -121 54 -3 0 -65 22 -136 49 -163 61 -181 66 -456 134
-210 51 -387 83 -590 108 -47 5 -94 13 -105 17 -11 4 -45 7 -75 8 -30 0 -138
6 -240 13 -102 8 -234 17 -295 21 -60 4 -90 8 -65 10 42 2 43 3 15 10 -24 6
-18 8 35 11 146 7 154 8 120 20 -18 6 -12 7 24 4 44 -5 53 -2 79 22 20 19 31
24 34 16 7 -19 79 -16 121 6 20 10 42 16 48 14 6 -2 17 3 24 12 14 17 50 21
50 5 0 -6 8 -5 20 2 14 9 20 24 20 50 l0 38 -1740 0 -1740 0 0 -4500z m7865
4267 c17 -217 19 -363 5 -372 -5 -3 -10 -15 -10 -26 0 -25 -21 -24 -43 1 -11
13 -17 37 -17 68 0 26 -5 117 -11 202 -8 106 -8 174 -1 215 l10 60 1 -57 c1
-45 4 -56 15 -52 8 3 16 -2 19 -13 3 -10 6 27 7 82 1 55 3 96 5 90 2 -5 11
-95 20 -198z m-1088 66 c7 -65 22 -205 32 -311 l19 -194 -21 -24 c-11 -13 -27
-24 -34 -24 -7 0 -13 -6 -13 -14 0 -24 -22 -30 -37 -10 -13 17 -15 17 -23 3
-12 -21 -66 -23 -74 -2 -5 12 -10 11 -26 -8 -19 -23 -21 -23 -24 4 0 6 -13 13
-28 15 -37 4 -44 33 -63 272 -8 107 -18 228 -21 268 -8 89 12 101 22 13 4 -34
12 -62 19 -65 19 -7 55 5 55 18 0 6 8 13 18 14 9 1 28 3 42 4 14 2 31 7 38 11
6 5 17 5 22 2 6 -4 17 -1 25 5 11 9 15 9 15 1 0 -6 6 -11 14 -11 19 0 30 67
21 123 -4 23 -4 39 0 35 4 -4 14 -60 22 -125z m-579 41 c0 -19 -4 -34 -9 -34
-5 0 -9 21 -9 48 0 31 3 42 9 33 5 -8 9 -29 9 -47z m937 -4 c7 -54 25 -78 25
-34 l0 27 20 -23 c19 -22 24 -23 54 -12 18 7 53 12 79 12 37 0 47 4 47 16 0
14 10 15 78 9 42 -4 79 -10 82 -14 3 -3 20 -7 37 -7 l33 -2 -6 42 c-3 27 -2
36 4 26 5 -8 20 -136 33 -284 22 -253 22 -269 6 -281 -9 -7 -17 -17 -17 -23 0
-7 -11 -9 -30 -5 -21 4 -36 0 -49 -11 -16 -14 -46 -18 -165 -21 l-146 -4 0 29
c0 17 -4 30 -10 30 -5 0 -10 -4 -10 -10 0 -21 -30 -9 -43 18 -13 25 -23 133
-42 485 -5 94 9 120 20 37z m-1518 -7 c-3 -10 -5 -4 -5 12 0 17 2 24 5 18 2
-7 2 -21 0 -30z m212 -57 c1 -36 11 -28 20 16 6 27 10 14 24 -77 20 -132 45
-321 51 -390 2 -27 7 -58 11 -67 10 -25 -12 -58 -40 -58 -28 0 -31 9 -39 110
-3 36 -12 128 -21 205 -17 153 -27 355 -15 315 5 -14 8 -38 9 -54z m248 52
c-3 -8 -6 -5 -6 6 -1 11 2 17 5 13 3 -3 4 -12 1 -19z m660 -10 c-3 -8 -6 -5
-6 6 -1 11 2 17 5 13 3 -3 4 -12 1 -19z m-635 -95 c6 -13 15 -23 20 -23 13 0
9 28 -4 33 -10 4 -10 7 0 18 10 11 12 10 12 -4 0 -9 5 -17 10 -17 6 0 10 -10
11 -22 1 -22 1 -22 10 2 7 20 8 17 6 -17 -1 -24 1 -43 5 -43 8 0 12 57 8 112
-2 30 15 46 24 22 11 -29 46 -322 46 -385 l0 -59 -55 4 c-54 4 -55 3 -55 -23
1 -26 50 -91 70 -91 14 0 12 17 -2 23 -8 3 -6 6 5 6 15 1 21 14 20 49 -1 18
15 14 27 -7 13 -25 4 -48 -38 -91 -33 -35 -33 -35 -50 -14 -9 12 -25 24 -34
27 -10 4 -18 14 -19 24 0 10 -2 34 -4 53 -24 220 -40 445 -35 490 3 19 4 17 7
-10 2 -19 9 -45 15 -57z m420 47 c2 -22 0 -40 -4 -40 -5 0 -8 18 -8 40 0 22 2
40 4 40 2 0 6 -18 8 -40z m105 34 c-3 -3 -12 -4 -19 -1 -8 3 -5 6 6 6 11 1 17
-2 13 -5z m-1390 -489 c1 -15 0 -15 -3 -3 -3 9 -13 19 -22 22 -12 3 -12 4 3 3
12 -1 21 -10 22 -22z m-1667 -150 c17 -9 30 -13 30 -10 0 10 94 -48 117 -72
12 -12 24 -31 28 -42 3 -12 12 -18 20 -15 22 9 85 -16 85 -32 0 -8 7 -17 15
-20 8 -4 16 -16 16 -28 1 -20 2 -20 6 -1 2 11 9 30 15 42 11 22 11 22 28 -10
19 -34 50 -39 77 -11 22 22 36 17 29 -10 -6 -25 14 -56 36 -56 7 0 6 -5 -1
-14 -16 -19 13 -30 39 -14 16 10 25 9 48 -4 16 -9 38 -15 49 -12 14 4 28 -3
44 -19 13 -14 33 -27 44 -29 12 -2 19 -11 19 -21 -1 -12 6 -17 22 -17 17 0 24
-6 24 -19 0 -22 10 -30 43 -37 37 -7 83 -22 70 -23 -16 -1 -17 -28 -3 -33 6
-2 12 -21 14 -43 2 -22 4 -46 5 -52 0 -7 8 -13 16 -13 8 0 15 -3 15 -8 0 -4
10 -12 23 -17 15 -7 21 -17 19 -32 -2 -13 1 -23 6 -23 5 0 10 -21 11 -46 0
-26 3 -50 6 -54 2 -4 0 -23 -6 -43 -7 -27 -14 -35 -26 -30 -12 5 -14 1 -9 -14
5 -14 -1 -30 -18 -50 -14 -17 -23 -33 -19 -37 3 -3 1 -6 -5 -6 -6 0 -9 -7 -6
-15 4 -10 0 -15 -13 -15 -10 0 -24 -5 -31 -12 -9 -9 -15 -8 -26 8 -12 15 -17
17 -27 7 -7 -7 -21 -13 -31 -13 -10 0 -21 -7 -24 -15 -4 -8 -13 -15 -21 -15
-8 0 -12 -4 -9 -8 2 -4 -7 -9 -22 -10 -36 -3 -75 -30 -68 -48 3 -9 1 -12 -5
-9 -14 9 -39 -14 -39 -36 0 -12 -7 -19 -18 -19 -10 0 -22 -4 -28 -9 -5 -5 -26
-14 -46 -21 -21 -6 -38 -18 -38 -26 0 -8 -4 -14 -10 -14 -5 0 -10 6 -10 13 0
15 -37 40 -49 33 -5 -3 -14 -20 -22 -38 -7 -18 -18 -36 -23 -40 -6 -4 -11 -12
-11 -18 0 -6 -8 -21 -18 -33 -9 -12 -28 -36 -42 -53 -30 -39 -32 -65 -5 -89
15 -14 19 -26 15 -46 -3 -15 -2 -30 3 -33 5 -3 10 -34 10 -70 1 -58 26 -158
53 -212 6 -11 12 -31 14 -45 6 -50 26 -124 35 -129 5 -3 12 -24 14 -47 3 -23
14 -57 25 -76 10 -18 22 -49 25 -68 10 -46 27 -89 36 -89 4 0 10 -10 13 -22 6
-24 34 -110 47 -143 16 -43 30 -92 30 -108 0 -9 6 -17 13 -17 12 0 33 -68 43
-137 2 -17 7 -40 12 -52 12 -34 2 -111 -15 -111 -8 0 -11 -5 -8 -10 9 -15 -43
-91 -80 -117 -16 -12 -56 -34 -87 -50 -32 -15 -56 -33 -53 -39 7 -23 -25 -51
-66 -58 -31 -5 -40 -10 -35 -22 3 -9 6 -23 6 -31 0 -14 2 -14 18 0 20 19 57
23 47 6 -5 -7 12 -8 52 -4 63 6 76 0 107 -47 10 -15 31 -30 47 -33 32 -7 49
-36 49 -83 0 -14 11 -42 25 -62 30 -43 25 -78 -14 -86 -34 -8 -107 -33 -148
-50 -17 -8 -35 -13 -40 -12 -4 1 -23 -6 -40 -15 -27 -15 -33 -23 -33 -52 0
-19 -6 -38 -14 -42 -19 -12 -37 -49 -30 -67 8 -21 34 -28 51 -14 17 14 157 12
183 -2 28 -15 63 -104 56 -142 -11 -62 -26 -72 -112 -79 -56 -5 -87 -3 -106 6
-21 10 -29 10 -40 -1 -8 -8 -51 -16 -110 -20 -105 -7 -150 3 -169 37 -9 18
-11 18 -36 2 -39 -26 -174 -24 -203 2 -11 10 -20 25 -20 34 0 10 -10 6 -32
-16 -34 -32 -84 -53 -124 -53 -15 0 -40 16 -65 41 l-41 41 -22 -21 c-11 -11
-39 -27 -60 -36 -35 -15 -40 -15 -64 1 -15 9 -31 23 -35 31 -10 16 -49 17 -64
2 -16 -16 -69 23 -75 56 -6 27 18 68 35 62 7 -2 18 3 25 10 10 10 18 11 27 3
10 -8 16 -7 22 4 5 9 26 20 48 25 36 8 37 9 10 10 -48 1 -199 -17 -260 -31
-66 -15 -116 -58 -96 -82 8 -10 9 -16 1 -21 -15 -10 32 -44 71 -52 18 -3 48
-17 67 -30 44 -29 66 -30 57 -3 -13 40 20 37 140 -11 17 -7 53 -18 80 -25 28
-7 68 -17 90 -22 60 -15 218 -42 235 -39 32 4 177 -16 205 -28 17 -7 48 -13
69 -14 22 0 43 -6 47 -13 4 -7 18 -13 31 -13 16 0 28 -10 38 -32 18 -39 36
-37 31 3 -6 50 -20 67 -51 61 -27 -6 -80 11 -80 25 0 4 15 2 33 -3 17 -6 65
-7 105 -4 63 6 71 5 66 -9 -5 -13 1 -16 26 -16 35 0 32 -19 -3 -21 -17 0 -13
-5 18 -19 31 -15 41 -26 47 -51 5 -26 2 -36 -20 -56 -15 -13 -35 -32 -45 -41
-10 -9 -26 -17 -35 -17 -11 0 -17 -8 -16 -22 0 -13 -5 -23 -13 -23 -7 0 -13
-4 -13 -10 0 -5 11 -10 25 -10 15 0 24 -5 22 -12 -2 -14 6 -14 36 -3 14 6 17
2 18 -21 l1 -29 16 35 c9 22 17 29 19 20 3 -12 14 -15 43 -12 l40 4 -3 86 c-2
60 -7 87 -16 90 -10 3 -10 6 -1 12 9 6 8 14 -4 37 -8 17 -12 33 -9 37 11 11
40 6 41 -6 1 -7 5 -28 8 -47 5 -24 3 -32 -5 -27 -6 4 -11 3 -11 -3 0 -5 4 -13
10 -16 5 -3 7 -19 3 -35 -4 -25 -2 -30 13 -30 12 0 15 -3 8 -8 -24 -16 -28
-112 -4 -97 4 3 10 -2 14 -10 3 -8 -2 -19 -11 -23 -9 -5 -17 -22 -19 -38 -2
-24 -1 -26 7 -11 12 21 29 22 29 3 0 -11 12 -15 40 -14 23 0 40 5 40 12 0 7 3
7 8 1 4 -5 14 -10 22 -10 8 0 15 -7 15 -15 0 -8 9 -16 20 -19 17 -3 18 -1 5
14 -13 15 -12 17 5 14 17 -4 20 -13 22 -74 0 -39 -3 -75 -9 -82 -6 -7 -5 -18
3 -32 10 -15 10 -25 1 -43 -8 -16 -9 -39 -2 -78 l9 -55 -3 53 c-2 28 0 52 5
52 13 0 22 -109 11 -123 -13 -15 -4 -60 9 -51 13 8 11 -10 -3 -24 -6 -6 -9
-15 -5 -19 4 -3 13 2 20 11 12 16 14 10 15 -45 3 -137 2 -161 -7 -177 -6 -10
-6 -23 0 -34 6 -10 6 -24 2 -31 -4 -6 -8 -19 -10 -27 -1 -8 -7 -16 -14 -19 -6
-2 -18 -11 -27 -21 -8 -10 -21 -16 -29 -13 -8 3 -13 2 -12 -3 4 -25 -3 -44
-16 -44 -8 0 -15 -4 -15 -10 0 -5 -11 -21 -26 -35 -18 -19 -31 -24 -50 -19
-15 4 -24 2 -24 -6 0 -6 -4 -8 -10 -5 -5 3 -10 1 -10 -6 0 -25 -34 -37 -87
-32 -45 5 -53 3 -53 -11 0 -9 -7 -16 -15 -16 -9 0 -20 -11 -25 -25 -6 -16 -25
-32 -47 -42 -21 -8 -50 -24 -65 -34 -14 -11 -40 -19 -57 -19 -17 0 -31 -4 -31
-9 0 -5 -9 -11 -21 -14 -16 -4 -18 -3 -9 8 16 19 -6 30 -27 13 -9 -7 -26 -12
-37 -10 -17 2 -18 1 -6 -7 10 -7 11 -11 3 -11 -7 0 -12 -5 -10 -11 1 -6 -4
-14 -12 -17 -10 -3 -12 0 -8 12 4 9 3 16 -1 16 -14 0 -34 -17 -30 -26 1 -5
-17 -7 -42 -5 -56 4 -66 11 -17 11 20 0 37 5 37 11 0 6 -7 8 -16 5 -9 -4 -23
-1 -30 5 -18 15 -45 4 -38 -16 5 -12 -2 -14 -42 -9 -27 3 -71 10 -99 15 -27 6
-65 12 -83 15 -53 7 -209 62 -310 109 -167 79 -313 178 -513 346 -149 126
-169 146 -334 327 -152 168 -160 177 -175 238 -11 46 -76 141 -101 147 -9 2
-19 18 -22 35 -9 46 -167 262 -191 262 -10 0 -180 219 -257 330 -41 61 -81 99
-113 110 -33 11 -66 54 -66 88 0 21 -78 210 -140 337 -21 44 -52 130 -69 190
-52 195 -89 324 -104 368 -24 67 -64 216 -76 282 -27 146 -31 188 -33 318 -1
129 0 139 21 160 13 15 25 46 31 82 5 32 14 63 20 69 5 5 10 18 10 28 0 14 8
18 40 18 30 0 40 4 40 16 0 14 2 15 17 3 15 -13 15 -14 0 -17 -12 -3 -17 -14
-17 -43 0 -21 5 -39 10 -39 6 0 10 -9 10 -20 0 -11 4 -20 9 -20 11 0 20 55 24
140 2 52 3 55 27 52 14 -1 20 1 15 5 -7 5 -10 67 -9 163 2 223 2 220 19 220 8
0 15 5 15 10 0 6 -9 10 -20 10 -17 0 -20 7 -20 40 0 25 5 40 13 40 9 0 8 3 -2
9 -11 7 -11 12 2 31 10 14 13 34 10 55 -3 18 -1 41 5 51 8 15 11 13 17 -15 5
-22 11 -31 21 -27 8 3 14 -1 14 -9 0 -28 18 -15 34 25 18 47 20 61 5 40 -9
-12 -10 -12 -5 3 3 10 9 36 12 58 7 42 22 59 34 39 5 -8 14 -2 30 20 18 25 20
34 10 40 -7 4 -10 15 -7 25 8 19 27 11 27 -11 0 -8 5 -14 10 -14 6 0 10 11 10
24 0 13 7 29 15 36 8 7 15 19 15 27 0 13 27 62 41 73 3 3 9 17 12 32 4 14 23
42 42 62 19 20 35 43 35 51 0 8 8 15 18 15 10 0 38 18 62 40 24 22 47 40 51
40 4 0 13 14 21 30 7 17 28 37 45 45 18 9 33 22 33 29 0 8 7 19 15 26 9 7 14
19 11 26 -2 6 5 25 17 41 31 41 118 123 131 123 6 0 20 7 30 15 11 8 30 15 43
15 12 0 46 9 75 20 29 11 74 20 100 20 25 0 48 4 50 9 2 6 18 6 38 2 23 -4 31
-9 22 -15 -7 -4 -24 -5 -38 -2 -28 7 -30 1 -9 -21 9 -9 23 -12 33 -8 28 11
132 15 132 5 0 -5 19 -3 43 5 92 29 114 35 140 35 15 0 27 5 27 10 0 22 28 8
40 -20 10 -25 15 -28 32 -19 23 12 72 3 63 -11 -3 -6 -23 -10 -43 -11 -28 0
-32 -2 -17 -8 33 -13 158 -8 162 7 3 7 -4 12 -15 12 -11 0 -29 3 -39 7 -14 6
-10 9 17 13 19 3 35 10 35 15 0 15 15 35 26 35 5 0 9 -7 9 -15 0 -21 17 -19
30 5 14 26 93 24 117 -2 17 -19 53 -25 53 -8 0 6 9 10 20 10 11 0 20 -4 20
-10 0 -5 -7 -10 -16 -10 -8 0 -12 -5 -9 -10 4 -6 12 -10 18 -8 7 1 29 -1 49
-5 27 -6 37 -13 40 -30 2 -16 11 -23 33 -24 29 -3 29 -2 7 9 -30 15 -24 42 11
46 16 2 27 9 27 18 0 8 4 13 9 10 5 -4 23 7 39 24 17 16 26 30 20 30 -5 0 -8
6 -5 13 2 7 15 11 31 9 15 -2 32 0 39 5 7 5 21 10 33 10 11 1 47 11 80 23 32
12 67 22 77 22 10 -1 32 6 50 13 41 18 42 18 77 0z m5220 -25 c-12 -8 -11 -10
8 -10 12 0 22 5 22 10 0 6 7 10 15 10 8 0 15 -7 15 -15 0 -8 0 -18 0 -22 0 -5
-36 -9 -79 -9 -43 -1 -83 -4 -88 -7 -5 -3 -61 -9 -124 -12 -63 -4 -120 -8
-127 -11 -8 -2 -73 -6 -145 -9 -73 -3 -157 -7 -187 -10 -300 -25 -527 -25
-598 -1 -32 11 -50 22 -45 27 5 5 144 16 309 24 164 8 358 17 429 21 107 5
298 13 570 22 29 1 36 -1 25 -8z m-1622 -34 c6 -3 13 -2 17 4 7 12 57 2 66
-13 4 -5 19 -7 34 -3 19 5 25 4 19 -5 -5 -9 0 -10 20 -5 17 4 39 0 64 -13 20
-10 78 -31 127 -46 91 -28 122 -46 184 -104 18 -17 37 -31 42 -31 4 0 6 -6 3
-13 -2 -7 11 -22 32 -34 l36 -20 -83 -7 c-136 -12 -166 -24 -44 -18 l110 5
-23 -25 c-20 -23 -21 -26 -7 -38 14 -11 17 -10 21 7 5 18 25 28 72 33 4 1 15
8 24 17 15 13 18 13 28 -7 17 -32 9 -104 -12 -108 -11 -2 -18 3 -18 12 0 20
-23 20 -91 -1 -31 -9 -47 -18 -36 -20 32 -8 17 -23 -22 -23 -22 0 -43 -4 -46
-10 -3 -6 -46 -9 -100 -8 -74 1 -92 4 -88 15 9 23 -17 43 -50 39 -37 -4 -45
-20 -23 -45 16 -17 14 -19 -30 -25 -26 -3 -61 -6 -78 -7 -29 0 -30 -1 -8 -10
26 -10 25 -35 -2 -33 -17 2 -22 -16 -7 -32 5 -5 12 -22 15 -39 6 -28 3 -31
-34 -47 -28 -11 -40 -13 -40 -5 0 8 -4 7 -9 -2 -5 -8 -16 -11 -25 -8 -8 3 -18
2 -21 -4 -4 -5 -9 -8 -13 -5 -9 5 -129 -14 -347 -55 -97 -18 -200 -26 -212
-16 -9 6 -15 4 -19 -6 -3 -9 -30 -19 -72 -26 -37 -7 -78 -14 -92 -17 -14 -3
-54 -10 -90 -14 -72 -9 -151 -24 -250 -46 -36 -8 -96 -16 -135 -18 -88 -5
-145 -16 -145 -27 0 -5 -29 -8 -65 -7 -36 2 -65 0 -65 -3 0 -3 -11 -4 -25 -1
-27 5 -34 34 -15 62 8 11 9 8 4 -11 -3 -15 -1 -30 4 -33 13 -8 19 2 26 38 4
22 1 29 -14 33 -16 4 -17 9 -8 29 8 17 20 24 42 25 30 2 30 2 4 6 -31 5 -36
25 -17 66 8 17 19 23 45 24 87 3 665 53 675 59 4 2 9 17 12 32 5 26 11 30 53
36 85 11 144 8 144 -9 0 -8 4 -15 9 -15 5 0 11 7 15 15 4 12 23 15 88 14 l83
0 -42 -19 c-24 -11 -43 -24 -43 -29 0 -5 -8 -12 -17 -14 -15 -4 -14 -5 3 -6
11 0 24 3 30 8 7 8 184 39 235 42 8 0 -2 7 -21 14 l-35 13 47 1 c26 1 50 -4
53 -9 3 -6 18 -8 33 -4 37 7 122 47 122 57 0 4 -8 4 -17 -1 -28 -14 -93 -24
-93 -14 0 5 10 14 23 20 21 11 21 11 -8 9 -26 -2 -30 1 -31 25 -1 37 -44 79
-44 43 0 -18 -21 -20 -38 -3 -9 9 -12 9 -12 0 0 -7 9 -21 20 -32 10 -10 15
-22 10 -25 -5 -3 -6 -13 -3 -22 4 -11 3 -14 -5 -9 -7 4 -12 4 -12 -1 0 -4 -53
-9 -118 -11 -64 -2 -187 -5 -272 -7 -85 -2 -190 -7 -232 -11 -54 -5 -86 -3
-108 6 -17 7 -28 15 -26 18 3 2 -6 13 -19 24 -14 11 -25 25 -25 33 0 7 -7 16
-16 19 -9 4 -14 13 -10 21 3 8 0 15 -7 15 -7 0 -3 6 8 12 11 7 25 17 32 23 18
19 118 34 245 37 l118 3 32 50 c46 71 174 196 233 227 37 20 68 27 120 29 39
2 75 8 81 14 12 12 154 12 172 1z m-4558 -105 c0 -4 -11 -6 -25 -3 -14 2 -25
6 -25 8 0 2 11 4 25 4 14 0 25 -4 25 -9z m1277 -13 c-3 -8 -6 -5 -6 6 -1 11 2
17 5 13 3 -3 4 -12 1 -19z m4978 -118 c-3 -5 -10 -10 -16 -10 -5 0 -9 5 -9 10
0 6 7 10 16 10 8 0 12 -4 9 -10z m-2758 -156 c-3 -3 -12 -4 -19 -1 -8 3 -5 6
6 6 11 1 17 -2 13 -5z m-11 -22 c-5 -8 -66 -4 -66 4 0 2 16 4 36 4 19 0 33 -4
30 -8z m294 -166 c-8 -8 -42 -17 -75 -20 -121 -10 -240 -20 -245 -19 -3 0 -21
3 -40 7 -25 4 -31 3 -20 -4 16 -10 -27 -13 -200 -14 -47 0 -88 -5 -92 -11 -5
-6 -8 -3 -8 7 0 17 5 18 133 33 147 17 352 31 472 33 78 2 87 0 75 -12z
m-1780 -112 c0 -8 -4 -12 -10 -9 -5 3 -10 10 -10 16 0 5 5 9 10 9 6 0 10 -7
10 -16z m1947 -306 c4 -89 -6 -118 -28 -76 -6 13 -24 37 -39 53 -44 48 -46 69
-8 94 60 39 71 28 75 -71z m-223 16 c-16 -37 -11 -73 9 -76 7 0 23 -2 37 -3
14 -1 49 -19 77 -41 52 -39 53 -40 53 -93 0 -52 16 -127 30 -144 14 -16 -12
-75 -34 -81 -12 -3 -102 -12 -201 -21 -99 -9 -259 -25 -355 -35 -96 -11 -181
-20 -190 -20 -12 -1 -12 -3 3 -11 18 -11 24 -39 8 -39 -6 0 -17 10 -25 21 -14
21 -18 21 -153 12 -76 -5 -142 -6 -146 -3 -8 7 12 95 38 160 7 19 26 87 41
151 l27 116 236 43 c130 23 297 55 371 70 74 16 147 28 162 29 l27 1 -15 -36z
m352 -164 c4 -63 8 -125 8 -137 1 -13 4 -23 9 -23 4 0 7 -5 7 -10 0 -7 -6 -7
-18 -1 -15 8 -18 28 -20 153 -2 78 -1 141 1 138 3 -3 9 -57 13 -120z m284 60
c0 -5 -4 -10 -9 -10 -6 0 -13 5 -16 10 -3 6 1 10 9 10 9 0 16 -4 16 -10z
m-2713 -20 c-14 -11 -28 -20 -31 -20 -3 0 2 9 11 20 10 11 24 20 32 20 8 0 3
-8 -12 -20z m2767 1 c4 -5 -3 -7 -14 -4 -23 6 -26 13 -6 13 8 0 17 -4 20 -9z
m83 -17 c-3 -3 -12 -4 -19 -1 -8 3 -5 6 6 6 11 1 17 -2 13 -5z m528 -14 c3 -5
1 -10 -4 -10 -6 0 -11 5 -11 10 0 6 2 10 4 10 3 0 8 -4 11 -10z m111 -69 c-3
-4 6 -13 19 -19 31 -14 32 -46 3 -66 -34 -24 -68 -21 -68 7 0 21 34 87 45 87
4 0 4 -4 1 -9z m-48 -18 c-2 -10 -11 -19 -21 -21 -16 -3 -17 -1 -7 17 13 25
33 28 28 4z m-428 -18 c0 -8 -7 -15 -15 -15 -8 0 -15 7 -15 15 0 8 7 15 15 15
8 0 15 -7 15 -15z m-2556 -201 c48 -4 74 -9 66 -14 -9 -6 -2 -11 23 -15 42 -8
60 -25 26 -25 -18 0 -20 -2 -9 -15 31 -38 12 -114 -29 -116 -14 0 -14 -1 -1
-6 14 -6 30 -22 30 -33 0 -3 -75 -5 -168 -6 l-167 0 -63 -33 c-38 -21 -70 -47
-83 -67 -11 -19 -25 -34 -30 -34 -13 0 -10 31 6 60 18 32 19 50 1 50 -7 0 -16
9 -19 21 -7 26 3 89 14 89 5 0 9 9 9 20 0 14 9 21 35 26 20 3 35 12 35 20 0 8
4 14 9 14 11 0 66 26 116 55 29 16 51 22 80 19 22 -2 76 -6 119 -10z m2424
-36 c10 -10 14 -10 21 0 8 14 41 6 41 -10 0 -6 11 -7 26 -4 19 5 30 1 44 -16
11 -13 19 -17 20 -10 0 14 20 17 20 2 0 -5 -15 -16 -34 -25 -26 -13 -39 -14
-55 -6 -11 6 -31 11 -44 11 -14 0 -27 7 -31 15 -3 8 -12 15 -21 15 -8 0 -15 9
-15 20 0 23 10 26 28 8z m-1703 -100 c-6 -22 -6 -22 9 -4 19 23 20 17 4 -19
-11 -26 -32 -33 -43 -15 -3 5 2 21 12 35 22 30 26 31 18 3z m-4475 -18 c0 -11
-7 -20 -15 -20 -18 0 -19 12 -3 28 16 16 18 15 18 -8z m4820 11 c0 -5 -7 -11
-15 -15 -15 -5 -20 5 -8 17 9 10 23 9 23 -2z m-290 -36 c-7 -8 -18 -15 -24
-15 -6 0 -2 7 8 15 25 19 32 19 16 0z m-1220 -35 c0 -5 -4 -10 -10 -10 -5 0
-10 5 -10 10 0 6 5 10 10 10 6 0 10 -4 10 -10z m-3370 -44 c0 -3 -4 -8 -10
-11 -5 -3 -10 -1 -10 4 0 6 5 11 10 11 6 0 10 -2 10 -4z m5751 -49 c17 7 35
10 40 8 10 -7 37 -92 41 -130 l3 -30 -65 -6 c-36 -4 -75 -10 -88 -14 -21 -7
-23 -5 -20 29 1 27 7 36 20 36 10 0 19 8 20 18 5 56 3 72 -9 72 -7 0 -13 -12
-13 -27 0 -38 -15 -62 -22 -36 -3 11 4 38 15 61 18 39 21 41 32 25 12 -16 18
-16 46 -6z m-2077 -89 c46 -10 129 -7 171 7 20 7 20 6 1 -9 -12 -9 -39 -16
-65 -16 -59 0 -48 -9 19 -15 32 -3 58 -1 66 6 10 8 18 8 27 1 7 -6 34 -12 60
-13 27 -2 56 -9 67 -16 18 -13 18 -14 -3 -37 -34 -36 -65 -51 -132 -63 -16 -3
-32 -10 -35 -14 -4 -5 -50 -10 -103 -11 -53 -2 -97 -6 -97 -10 0 -5 -4 -8 -10
-8 -5 0 -10 6 -10 14 0 8 -12 17 -26 20 -14 4 -48 29 -75 55 -61 60 -66 94
-16 115 33 15 73 14 161 -6z m44 -241 c7 -5 15 -7 19 -4 3 4 12 2 19 -4 11 -9
189 -32 237 -31 9 1 17 -4 17 -9 0 -5 11 -7 24 -3 22 5 56 -16 56 -36 0 -4 10
-6 23 -4 12 2 16 1 9 -2 -10 -5 -9 -10 4 -25 13 -15 15 -22 6 -31 -16 -16 -15
-43 3 -58 17 -14 20 -56 5 -65 -5 -3 -10 -11 -10 -16 0 -6 4 -8 8 -5 5 3 7
-31 6 -75 -2 -59 1 -82 11 -85 15 -6 18 -71 4 -80 -12 -7 -11 -44 1 -44 6 0
10 7 10 16 0 8 5 12 10 9 15 -9 -7 -35 -30 -35 -13 0 -16 6 -12 28 5 24 3 25
-11 14 -14 -12 -22 -9 -60 16 -24 17 -59 52 -78 78 -19 26 -46 58 -61 73 -16
14 -28 29 -28 33 0 5 -11 26 -25 48 -14 22 -22 40 -18 40 5 0 0 5 -9 11 -10 5
-24 25 -33 43 -9 18 -25 43 -35 54 -11 12 -20 25 -20 31 0 9 -26 43 -67 88
-40 42 -21 65 25 30z m2116 -9 c11 -55 15 -118 7 -122 -17 -11 -118 124 -104
138 4 3 26 6 49 6 37 0 44 -3 48 -22z m153 -50 c-3 -8 -6 -5 -6 6 -1 11 2 17
5 13 3 -3 4 -12 1 -19z m34 -96 c10 -29 14 -50 10 -47 -5 3 -12 -3 -17 -13 -6
-14 -8 -12 -14 13 -9 36 -11 137 -3 115 3 -8 14 -39 24 -68z m26 -104 c7 18
23 4 23 -19 0 -20 -1 -20 -30 -2 -16 9 -30 24 -30 33 1 12 4 11 16 -5 11 -14
18 -16 21 -7z m-6742 -488 c-3 -5 -10 -10 -16 -10 -5 0 -9 5 -9 10 0 6 7 10
16 10 8 0 12 -4 9 -10z m35 -35 c0 -8 -9 -15 -20 -15 -22 0 -27 15 -7 23 21 9
27 7 27 -8z m7916 -62 c-11 -122 -44 -205 -86 -216 -31 -8 -34 11 -20 131 15
126 22 146 55 138 14 -4 27 0 35 9 7 8 15 15 18 15 2 0 2 -35 -2 -77z m-7857
31 c19 -14 25 -14 32 -3 6 10 9 11 9 2 0 -7 9 -13 20 -13 11 0 23 -7 26 -15 4
-8 10 -13 14 -10 4 3 11 -3 14 -12 4 -9 1 -20 -5 -24 -6 -4 -8 -12 -4 -18 8
-14 -47 -3 -56 11 -3 5 -19 12 -35 17 -19 5 -28 13 -26 24 2 11 -4 17 -16 17
-20 0 -36 23 -25 34 10 10 28 7 52 -10z m7081 -138 c0 -17 3 -41 6 -53 6 -21
3 -23 -40 -23 -34 0 -46 -4 -46 -15 0 -23 -19 -18 -25 8 -23 103 -24 108 -7
114 10 2 26 9 37 13 40 17 50 17 63 2 6 -9 12 -30 12 -46z m-298 0 c16 -37 37
-40 50 -8 7 15 13 28 14 30 5 9 53 -20 49 -30 -2 -7 -9 -32 -15 -55 -8 -31
-16 -43 -29 -43 -11 0 -22 7 -25 16 -6 17 -27 9 -25 -9 3 -27 -2 -37 -21 -37
-11 0 -20 -4 -20 -10 0 -5 17 -10 38 -10 32 0 41 -5 51 -27 9 -20 9 -29 0 -37
-8 -8 -13 -8 -16 2 -6 17 -23 15 -23 -3 0 -8 5 -15 11 -15 5 0 7 -4 4 -10 -10
-17 5 -33 19 -21 9 7 29 8 62 2 27 -5 49 -9 49 -8 0 12 33 61 43 65 13 4 15
-44 3 -87 -8 -31 -31 -40 -31 -12 0 29 -20 26 -46 -6 -18 -23 -30 -28 -70 -28
l-49 -1 -1 -75 c0 -42 -4 -80 -7 -86 -11 -18 52 -39 74 -25 23 15 24 10 3 -34
-13 -28 -21 -33 -38 -29 -19 5 -19 5 -3 -5 15 -9 22 -8 36 4 23 21 23 21 57
-12 25 -24 28 -33 23 -65 -6 -36 -42 -87 -62 -87 -5 0 -16 8 -24 18 -13 16
-14 15 -10 -5 6 -25 -10 -32 -19 -8 -4 8 -9 13 -13 10 -4 -2 -17 13 -29 35
-11 22 -16 40 -10 42 10 4 12 39 6 108 -3 31 -6 35 -29 32 -19 -2 -34 7 -60
36 -55 63 -68 80 -63 85 3 3 -15 27 -40 53 -25 27 -46 52 -46 55 0 4 9 9 20
12 22 6 28 37 6 37 -29 0 -39 28 -27 73 6 23 13 55 16 71 2 17 13 39 25 50
l20 20 32 -29 c18 -17 44 -36 57 -43 23 -13 23 -13 17 10 -4 12 -10 39 -13 59
-4 30 -2 37 18 46 36 18 48 15 61 -11z m155 -52 c-3 -3 -12 -4 -19 -1 -8 3 -5
6 6 6 11 1 17 -2 13 -5z m233 -63 c0 -5 -6 -16 -13 -23 -22 -22 -39 -59 -33
-73 8 -22 -21 -6 -38 20 -21 32 -20 34 10 45 17 7 24 15 20 25 -4 11 2 15 24
15 17 0 30 -4 30 -9z m-140 -31 c0 -13 -7 -20 -19 -20 -10 0 -21 -7 -25 -15
-3 -8 -10 -15 -16 -15 -5 0 -10 7 -10 15 0 8 6 15 13 15 8 0 22 9 32 20 10 11
20 20 22 20 1 0 3 -9 3 -20z m-150 -75 c0 -8 -4 -15 -10 -15 -5 0 -7 7 -4 15
4 8 8 15 10 15 2 0 4 -7 4 -15z m47 -17 c-3 -7 -5 -2 -5 12 0 14 2 19 5 13 2
-7 2 -19 0 -25z m-2441 -57 c5 1 23 1 40 0 28 -1 30 -3 26 -32 -2 -17 -10 -33
-17 -35 -7 -3 -11 -14 -8 -25 4 -14 0 -19 -15 -19 -22 0 -48 35 -44 57 2 7 -4
23 -13 36 -16 26 -10 43 11 27 6 -6 16 -10 20 -9z m2075 -74 c-14 -14 -14 -47
-1 -47 16 0 12 -32 -7 -52 -17 -19 -16 -19 10 -13 21 6 27 4 27 -8 0 -25 -16
-29 -53 -13 -44 18 -52 32 -33 52 9 8 16 30 16 49 0 53 8 67 32 54 15 -8 17
-14 9 -22z m559 23 c0 -12 -36 -31 -44 -23 -14 14 -5 29 19 31 14 1 25 -3 25
-8z m-170 -14 c0 -3 -4 -8 -10 -11 -5 -3 -10 -1 -10 4 0 6 5 11 10 11 6 0 10
-2 10 -4z m88 -18 c-2 -5 -6 -8 -9 -6 -6 4 -65 -56 -71 -73 -2 -7 -10 -9 -16
-5 -22 13 -13 37 18 47 19 7 30 18 30 29 0 10 6 20 13 23 17 6 39 -3 35 -15z
m-411 -82 c-2 -6 -9 -1 -16 12 -6 12 -9 28 -5 34 8 13 27 -28 21 -46z m53
-161 c10 -30 9 -40 -4 -60 -9 -14 -20 -25 -24 -25 -11 0 -47 39 -61 67 -21 42
-15 53 33 53 42 0 45 -2 56 -35z m390 -4 c0 -11 -5 -23 -11 -27 -15 -9 -33 12
-26 30 9 23 37 20 37 -3z m-3082 -87 c22 -6 32 -34 11 -34 -7 0 -9 -10 -5 -24
3 -14 1 -28 -4 -31 -17 -10 -1 -25 28 -26 l27 0 -25 -10 c-13 -5 -36 -9 -50
-7 -22 3 -26 8 -30 53 -9 84 -3 92 48 79z m520 -89 c5 -4 -22 -45 -29 -45 -9
0 -28 47 -22 54 6 5 42 -1 51 -9z m2252 -55 c0 -5 -2 -10 -4 -10 -3 0 -8 5
-11 10 -3 6 -1 10 4 10 6 0 11 -4 11 -10z m57 -32 c-3 -7 -5 -2 -5 12 0 14 2
19 5 13 2 -7 2 -19 0 -25z m-2957 -78 c0 -5 -7 -10 -15 -10 -8 0 -15 5 -15 10
0 6 7 10 15 10 8 0 15 -4 15 -10z m-370 -20 c0 -5 -2 -10 -4 -10 -3 0 -8 5
-11 10 -3 6 -1 10 4 10 6 0 11 -4 11 -10z m-2744 -532 c4 -7 7 -25 6 -39 -1
-15 3 -33 10 -41 7 -7 27 -33 43 -58 17 -25 35 -51 42 -57 6 -7 21 -28 33 -48
25 -40 22 -39 67 -23 43 16 50 6 22 -32 -23 -30 -23 -31 -5 -65 28 -52 56 -77
78 -72 15 4 32 -14 83 -91 35 -53 81 -113 102 -133 65 -62 133 -109 159 -109
25 0 90 39 183 109 30 23 59 41 64 41 15 0 116 -110 123 -134 4 -12 12 -28 19
-36 19 -22 105 -191 105 -205 0 -6 9 -20 19 -29 11 -10 27 -34 37 -54 9 -21
30 -53 46 -72 64 -76 187 -248 213 -299 27 -54 95 -251 95 -275 0 -8 7 -19 15
-26 8 -7 12 -17 9 -22 -7 -11 14 -87 28 -102 4 -6 8 -19 8 -30 0 -12 16 -66
36 -121 19 -55 38 -108 41 -117 2 -9 0 -25 -7 -35 -9 -15 -10 -12 -5 17 5 31
4 32 -8 16 -10 -14 -16 -16 -21 -7 -5 8 -12 9 -19 3 -7 -5 -33 -13 -59 -16
-37 -6 -48 -11 -48 -25 0 -10 -11 -26 -25 -35 -14 -9 -25 -23 -25 -31 0 -9
-10 -15 -25 -15 -26 0 -65 -48 -65 -81 0 -29 -25 -70 -47 -75 -19 -5 -22 -14
-25 -62 -3 -50 -6 -57 -33 -72 -16 -9 -31 -26 -33 -38 -4 -25 -22 -30 -22 -7
0 11 -11 15 -38 15 -21 0 -43 5 -50 12 -9 9 -12 9 -12 0 0 -24 -27 -11 -56 28
-18 25 -37 40 -51 40 -20 0 -23 5 -23 40 0 35 -3 40 -23 40 -16 0 -33 12 -50
37 -40 57 -142 123 -189 123 -39 0 -46 4 -98 53 -15 15 -38 27 -49 27 -15 0
-21 6 -21 21 0 11 -10 29 -22 40 -24 19 -53 26 -43 9 3 -5 2 -10 -4 -10 -5 0
-11 5 -13 10 -2 6 -13 12 -26 13 -12 0 -25 9 -28 19 -3 10 -14 18 -25 18 -11
0 -27 14 -39 33 -10 17 -22 37 -27 42 -4 6 -25 36 -47 68 -21 31 -42 54 -47
51 -5 -3 -9 2 -9 12 0 9 -15 35 -33 58 -18 23 -39 53 -46 69 -8 15 -19 27 -26
27 -6 0 -22 18 -35 40 -14 22 -29 40 -35 40 -5 0 -23 18 -39 40 -17 22 -33 40
-38 40 -4 0 -8 18 -8 40 0 22 -4 40 -10 40 -5 0 -10 8 -10 18 0 9 -7 30 -15
46 -17 32 -20 96 -5 96 6 0 10 33 10 80 0 47 -4 80 -10 80 -5 0 -10 6 -10 13
0 6 -14 26 -30 44 -22 23 -30 42 -30 67 0 20 -4 36 -8 36 -13 0 -23 223 -12
260 6 21 4 68 -5 141 -11 79 -12 117 -4 136 6 16 8 48 4 72 -5 31 -3 41 5 36
8 -5 11 10 10 52 -2 91 12 263 21 263 5 0 9 18 9 40 0 22 -4 40 -10 40 -5 0
-10 9 -10 21 0 15 5 19 15 15 10 -3 15 1 15 13 0 54 13 50 60 -18 27 -39 52
-76 56 -83z m7044 113 c0 -6 -4 -13 -10 -16 -5 -3 -10 -13 -10 -21 0 -25 -41
-102 -57 -109 -28 -10 -34 10 -14 48 37 73 91 130 91 98z m-3750 -71 c0 -5 -2
-10 -4 -10 -3 0 -8 5 -11 10 -3 6 -1 10 4 10 6 0 11 -4 11 -10z m-3463 -342
c-3 -8 -6 -5 -6 6 -1 11 2 17 5 13 3 -3 4 -12 1 -19z m7805 -49 c2 -7 15 -13
29 -14 22 -2 24 -6 25 -56 0 -30 3 -97 5 -150 3 -85 2 -99 -15 -118 -11 -12
-26 -21 -34 -21 -25 0 -82 -43 -82 -62 0 -16 -53 -68 -70 -68 -15 0 -31 37
-41 93 -22 122 -22 119 9 182 16 33 37 85 46 115 18 62 57 131 63 113 6 -18
23 -16 23 2 0 12 4 13 19 5 11 -5 21 -15 23 -21z m-6210 -601 c61 -57 228
-219 372 -361 143 -142 279 -270 302 -285 34 -21 42 -32 42 -54 -1 -18 -7 -28
-16 -28 -9 0 -13 -7 -9 -20 3 -13 -3 -24 -19 -35 -14 -9 -22 -20 -20 -24 3 -4
-6 -14 -19 -21 -27 -15 -31 -30 -13 -48 13 -13 8 -15 -16 -6 -9 3 -16 10 -16
16 0 5 -22 36 -50 69 -27 33 -50 63 -50 67 0 4 -13 22 -29 41 -16 18 -38 53
-50 76 -12 24 -28 48 -36 55 -8 7 -15 17 -15 22 0 13 -139 183 -217 265 -13
13 -23 27 -23 31 -1 4 -30 38 -65 77 -36 38 -65 75 -65 82 0 7 -9 18 -20 25
-11 7 -20 17 -20 22 0 10 -49 86 -61 96 -7 6 -8 40 -2 40 3 0 54 -46 115 -102z
m768 -1083 c0 -9 -6 -12 -16 -8 -13 5 -13 7 -2 14 17 11 18 11 18 -6z m241
-52 c0 -10 2 -28 3 -40 2 -14 -3 -23 -11 -23 -8 0 -13 -13 -13 -39 0 -22 -6
-44 -15 -51 -21 -17 -19 -30 5 -30 14 0 20 -7 20 -21 0 -13 -6 -20 -17 -18
-50 5 -55 0 -28 -26 14 -14 25 -32 25 -40 0 -23 -9 -18 -20 10 -5 14 -14 25
-19 25 -6 0 -4 -15 5 -35 16 -40 18 -65 4 -65 -5 0 -10 8 -10 18 0 11 -9 27
-20 37 -11 10 -23 34 -26 54 -4 20 -13 43 -20 51 -7 9 -20 36 -29 59 -8 24
-24 58 -35 76 -28 46 -25 50 10 13 27 -28 32 -30 48 -16 9 8 26 19 37 23 19 7
19 8 -5 15 -22 6 -20 7 18 14 29 5 47 4 57 -4 12 -10 15 -9 15 9 0 25 20 29
21 4z m-738 -113 c3 -11 1 -18 -4 -14 -5 3 -9 12 -9 20 0 20 7 17 13 -6z
m1556 -147 c-1 -21 -6 -67 -11 -103 -4 -36 -18 -130 -28 -210 -19 -136 -27
-173 -52 -263 -14 -46 -38 -71 -38 -38 0 11 5 21 10 21 6 0 10 7 10 15 0 23
-17 18 -23 -6 -4 -15 -11 -20 -21 -16 -25 10 -19 -9 9 -31 15 -12 21 -23 15
-27 -5 -3 -10 -1 -10 6 0 18 -17 -1 -23 -26 -4 -15 -5 -13 -6 8 -1 15 4 27 12
27 6 1 -1 12 -18 25 -22 19 -42 25 -77 25 -39 0 -48 3 -49 18 -2 31 3 47 17
55 17 10 18 47 3 81 -14 30 7 116 28 116 7 0 13 5 13 11 0 5 -4 7 -10 4 -5 -3
-10 0 -10 8 0 15 32 34 65 39 12 2 21 12 23 25 2 12 9 27 17 33 8 6 11 18 8
26 -3 9 2 14 15 14 12 0 23 9 27 21 5 15 13 20 29 17 20 -4 22 -1 21 25 -1 18
5 33 17 40 12 8 18 24 18 48 0 31 6 49 17 49 1 0 2 -17 2 -37z m-34 -13 c-3
-5 -10 -10 -16 -10 -5 0 -9 5 -9 10 0 6 7 10 16 10 8 0 12 -4 9 -10z m-816
-145 c0 -5 -4 -3 -9 5 -5 8 -9 22 -9 30 0 16 17 -16 18 -35z m109 -260 c-3 -3
-9 2 -12 12 -6 14 -5 15 5 6 7 -7 10 -15 7 -18z m608 -281 c-4 -9 -9 -15 -11
-12 -3 3 -3 13 1 22 4 9 9 15 11 12 3 -3 3 -13 -1 -22z"/>
<path d="M7840 8489 c0 -5 5 -7 10 -4 6 3 10 8 10 11 0 2 -4 4 -10 4 -5 0 -10
-5 -10 -11z"/>
<path d="M7830 8436 c0 -2 7 -6 15 -10 8 -3 15 -1 15 4 0 6 -7 10 -15 10 -8 0
-15 -2 -15 -4z"/>
<path d="M6595 8300 c3 -5 8 -10 11 -10 2 0 4 5 4 10 0 6 -5 10 -11 10 -5 0
-7 -4 -4 -10z"/>
<path d="M7328 8823 c6 -2 18 -2 25 0 6 3 1 5 -13 5 -14 0 -19 -2 -12 -5z"/>
<path d="M7417 8464 c-3 -4 -2 -15 4 -26 6 -11 9 -35 7 -55 -2 -26 1 -37 12
-39 8 -2 25 -6 38 -10 13 -4 22 -2 22 5 0 6 -6 11 -13 11 -7 0 -22 6 -32 14
-17 12 -17 16 -5 31 10 11 23 15 42 11 15 -3 28 -1 28 4 0 6 -5 10 -11 10 -6
0 -9 7 -5 15 4 11 -2 15 -24 15 -16 0 -32 5 -35 10 -7 11 -19 13 -28 4z"/>
<path d="M5842 8740 c0 -14 2 -19 5 -12 2 6 2 18 0 25 -3 6 -5 1 -5 -13z"/>
<path d="M3810 8029 c0 -5 5 -7 10 -4 6 3 10 8 10 11 0 2 -4 4 -10 4 -5 0 -10
-5 -10 -11z"/>
<path d="M1978 8003 c7 -3 16 -2 19 1 4 3 -2 6 -13 5 -11 0 -14 -3 -6 -6z"/>
<path d="M2268 7943 c6 -2 18 -2 25 0 6 3 1 5 -13 5 -14 0 -19 -2 -12 -5z"/>
<path d="M4220 7858 c0 -16 5 -28 10 -28 13 0 13 20 0 40 -8 12 -10 9 -10 -12z"/>
<path d="M2700 7856 c0 -9 30 -14 35 -6 4 6 -3 10 -14 10 -12 0 -21 -2 -21 -4z"/>
<path d="M3304 7705 c-8 -20 4 -35 26 -35 25 0 35 17 20 35 -16 19 -39 19 -46
0z"/>
<path d="M4398 7713 c7 -3 16 -2 19 1 4 3 -2 6 -13 5 -11 0 -14 -3 -6 -6z"/>
<path d="M2000 7570 c0 -5 -7 -10 -15 -10 -8 0 -15 -3 -15 -8 0 -13 -36 -30
-76 -36 -35 -6 -37 -5 -14 5 14 7 28 12 32 11 3 -1 8 4 11 11 3 8 -4 12 -22
11 -14 -1 -34 -3 -43 -3 -9 -1 -23 -8 -31 -16 -13 -12 -15 -12 -20 5 -3 13 1
20 17 23 11 2 1 5 -24 5 -29 1 -40 -1 -31 -7 11 -7 11 -10 0 -17 -7 -4 -14 -3
-17 4 -4 14 -52 -14 -52 -31 0 -7 4 -7 12 1 7 7 16 12 20 12 16 0 7 -19 -22
-47 -16 -15 -30 -31 -30 -35 0 -13 -38 -47 -45 -40 -3 4 -3 -1 0 -10 7 -19
-21 -74 -42 -82 -16 -7 -17 6 -1 22 6 6 8 15 4 19 -4 5 -17 -3 -27 -17 -51
-65 -69 -81 -80 -74 -8 5 -10 2 -7 -7 4 -10 -3 -14 -25 -15 -16 -1 -34 -9 -39
-18 -5 -9 -18 -16 -28 -16 -10 0 -22 -4 -25 -10 -3 -5 -1 -10 4 -10 18 0 12
-36 -9 -55 -11 -10 -20 -22 -20 -27 0 -12 90 0 109 15 8 6 5 -2 -7 -20 -13
-18 -27 -35 -32 -38 -6 -3 -14 -14 -20 -24 -8 -17 -5 -18 33 -16 116 6 211 35
116 35 -34 0 -40 3 -30 13 6 6 15 12 19 12 4 1 30 11 57 24 28 12 60 20 73 18
13 -3 22 1 22 9 0 7 6 15 13 17 6 3 1 6 -13 7 -16 1 -20 4 -10 7 8 3 26 11 40
17 14 5 36 11 50 11 14 1 42 2 62 3 25 1 38 7 42 20 7 22 79 43 98 30 10 -7 8
-8 -4 -4 -10 3 -20 1 -23 -4 -4 -6 10 -10 30 -10 22 0 34 -4 30 -10 -9 -14
-68 -13 -83 2 -9 9 -12 7 -12 -9 0 -18 8 -21 93 -27 69 -4 99 -11 119 -26 18
-13 40 -19 66 -17 47 2 46 17 -1 17 -18 0 -50 9 -72 20 -22 10 -53 22 -70 27
-30 7 -30 7 -4 10 14 2 38 -2 55 -8 16 -7 34 -13 39 -14 70 -8 105 -18 105
-31 0 -8 10 -14 24 -14 13 0 29 -6 35 -14 11 -13 36 -19 121 -33 19 -3 37 -9
38 -14 5 -12 32 -11 32 1 0 6 -4 10 -10 10 -5 0 -10 5 -10 10 0 17 26 11 51
-11 l24 -22 -23 6 c-12 3 -20 1 -17 -4 3 -5 32 -6 65 -4 33 3 62 0 65 -5 4 -6
13 -7 23 -1 22 12 114 4 166 -13 63 -21 126 -30 126 -17 0 6 -4 11 -9 11 -5 0
-16 6 -23 13 -7 6 -25 18 -40 26 -16 8 -28 19 -28 24 0 6 -7 19 -17 29 -9 10
-11 18 -5 18 6 0 21 -13 34 -30 12 -16 28 -30 35 -30 7 0 13 -4 13 -8 0 -11
59 -35 93 -38 15 -1 27 -1 27 1 0 2 -36 27 -79 56 -44 30 -78 56 -75 58 2 3
-8 10 -23 17 l-28 11 27 -1 c16 0 28 -4 28 -8 0 -5 4 -8 8 -8 5 0 28 -18 52
-40 24 -22 51 -40 61 -40 10 0 25 -7 34 -16 18 -18 45 -12 45 11 0 8 -4 15 -8
15 -5 0 -18 19 -31 43 -20 37 -20 39 -2 17 50 -62 61 -79 61 -98 0 -12 5 -24
10 -27 6 -3 10 3 10 14 0 19 1 19 26 -4 15 -14 24 -31 21 -39 -4 -9 -2 -18 2
-21 5 -2 11 9 15 26 9 48 7 62 -8 56 -17 -7 -56 25 -56 45 0 9 -9 27 -20 41
-14 18 -17 26 -8 29 8 3 4 9 -10 17 -12 6 -22 16 -22 22 0 14 -31 44 -55 53
-17 6 -16 4 5 -20 14 -15 18 -23 10 -19 -27 16 -49 39 -44 46 8 13 -99 109
-121 108 -15 -1 -16 -2 -3 -6 9 -2 24 -16 34 -31 l17 -27 -24 21 c-13 12 -29
20 -35 17 -6 -2 -17 3 -24 12 -7 8 -21 15 -31 15 -11 0 -19 4 -19 8 0 10 -59
35 -90 38 -14 1 -46 5 -72 9 -41 6 -48 5 -48 -9 0 -10 -9 -16 -25 -16 -14 0
-25 4 -25 9 0 4 -10 7 -22 5 -13 -2 -51 -5 -86 -8 -52 -3 -61 -2 -52 9 7 8 9
18 6 24 -4 5 2 12 11 14 16 4 16 5 1 6 -9 0 -23 -6 -32 -14 -8 -8 -21 -15 -30
-15 -21 0 -31 20 -15 32 10 6 0 8 -31 4 -41 -4 -43 -3 -26 10 11 8 29 14 40
15 15 0 17 2 6 6 -8 3 -18 11 -22 16 -4 6 -12 4 -23 -6 -9 -10 -26 -17 -38
-17 -29 -1 -78 -45 -71 -64 3 -9 -3 -19 -16 -26 -11 -6 -18 -15 -16 -19 3 -4
-7 -14 -22 -20 l-27 -13 20 23 c18 21 19 22 2 16 -10 -4 -21 -7 -23 -7 -2 0
-4 -7 -4 -15 0 -16 -9 -19 -34 -9 -12 5 -4 17 35 53 l51 48 -32 7 c-48 9 -58
7 -32 -7 23 -13 23 -13 -20 -47 -24 -19 -34 -24 -24 -12 21 24 16 28 -15 12
-11 -6 -19 -7 -19 -1 0 5 17 16 38 24 20 9 31 16 25 16 -7 1 -13 8 -13 17 0
10 -6 14 -15 10 -19 -7 -19 8 0 24 8 6 20 8 26 4 7 -4 9 -3 6 3 -4 6 2 13 13
16 26 7 26 27 0 27 -11 0 -20 -4 -20 -10z m-167 -108 c-10 -11 -29 -23 -43
-26 -24 -7 -24 -6 -6 8 11 9 23 16 26 16 4 0 13 12 21 27 10 19 15 22 17 10 2
-9 -5 -25 -15 -35z m-87 -9 c-20 -21 -36 -32 -36 -26 0 14 61 76 68 69 2 -3
-12 -22 -32 -43z m169 37 c-3 -5 -11 -10 -16 -10 -6 0 -7 5 -4 10 3 6 11 10
16 10 6 0 7 -4 4 -10z m265 -20 c-26 -20 -50 -26 -50 -12 0 8 45 29 65 31 6 0
-1 -8 -15 -19z m83 -20 c5 -21 -7 -28 -18 -10 -4 6 -16 8 -28 4 -20 -6 -20 -5
3 14 28 23 35 21 43 -8z m-388 1 c-3 -6 -11 -11 -17 -11 -6 0 -6 6 2 15 14 17
26 13 15 -4z m55 -21 c0 -5 -7 -10 -16 -10 -8 0 -12 5 -9 10 3 6 10 10 16 10
5 0 9 -4 9 -10z m38 -55 c-2 -2 -15 -1 -28 2 l-25 7 25 6 c22 6 39 -4 28 -15z
m339 19 c-3 -3 -12 -4 -19 -1 -8 3 -5 6 6 6 11 1 17 -2 13 -5z m433 -6 c0 -11
-12 -10 -30 2 -12 7 -10 9 8 7 12 0 22 -5 22 -9z m-843 -54 c-3 -3 -12 -4 -19
-1 -8 3 -5 6 6 6 11 1 17 -2 13 -5z m-7 -39 c-17 -21 8 -20 38 1 13 9 26 14
29 11 10 -11 -8 -26 -40 -32 -50 -10 -87 -26 -81 -36 3 -5 0 -9 -5 -9 -14 0
-14 17 0 25 6 4 8 13 5 21 -3 9 1 14 14 14 10 0 22 5 25 10 3 6 11 10 17 10 7
0 6 -6 -2 -15z m910 -58 c0 -9 -56 28 -66 44 -3 6 10 0 30 -13 20 -13 36 -27
36 -31z m-1240 33 c0 -5 -5 -10 -11 -10 -5 0 -7 5 -4 10 3 6 8 10 11 10 2 0 4
-4 4 -10z m150 -30 c0 -5 -8 -10 -17 -10 -15 0 -16 2 -3 10 19 12 20 12 20 0z
m45 0 c3 -5 1 -10 -4 -10 -6 0 -11 5 -11 10 0 6 2 10 4 10 3 0 8 -4 11 -10z
m272 4 c-3 -3 -12 -4 -19 -1 -8 3 -5 6 6 6 11 1 17 -2 13 -5z m140 -17 c4 -7
-5 -8 -27 -4 -18 4 -44 7 -59 8 l-26 1 25 7 c31 9 78 2 87 -12z m556 16 c3 -5
-6 -9 -19 -9 -13 -1 -21 2 -18 7 6 11 31 12 37 2z m-388 -23 c3 -5 1 -10 -4
-10 -6 0 -11 5 -11 10 0 6 2 10 4 10 3 0 8 -4 11 -10z m420 0 c3 -5 1 -10 -4
-10 -6 0 -11 5 -11 10 0 6 2 10 4 10 3 0 8 -4 11 -10z m-1305 -10 c0 -5 -4
-10 -10 -10 -5 0 -10 5 -10 10 0 6 5 10 10 10 6 0 10 -4 10 -10z m244 -15
c-10 -8 -28 -14 -39 -14 -18 0 -17 1 5 14 34 20 60 20 34 0z m1291 -63 c-7 -7
-54 48 -54 63 0 6 13 -5 30 -23 17 -19 28 -37 24 -40z m-390 30 c-3 -3 -11 0
-18 7 -9 10 -8 11 6 5 10 -3 15 -9 12 -12z m225 -39 c0 -9 -65 36 -69 48 -2 7
13 0 33 -16 20 -15 36 -30 36 -32z m-1342 42 c-18 -16 -88 -43 -93 -35 -7 12
36 35 70 36 15 1 25 1 23 -1z m72 -5 c-8 -5 -19 -10 -25 -10 -5 0 -3 5 5 10 8
5 20 10 25 10 6 0 3 -5 -5 -10z m85 0 c3 -5 2 -10 -4 -10 -5 0 -13 5 -16 10
-3 6 -2 10 4 10 5 0 13 -4 16 -10z m1045 -10 c17 -13 20 -20 10 -20 -9 0 -23
9 -33 20 -21 25 -9 25 23 0z m4 -30 c14 0 26 -5 26 -11 0 -7 -12 -8 -32 -4
-57 11 -68 16 -63 26 4 5 14 5 25 -1 10 -5 30 -10 44 -10z m-117 -16 c-3 -3
-12 -4 -19 -1 -8 3 -5 6 6 6 11 1 17 -2 13 -5z m-1087 -24 c-10 -6 -10 -9 0
-15 15 -9 -5 -25 -33 -25 -16 0 -16 3 4 30 12 16 26 27 32 23 5 -3 4 -9 -3
-13z m1255 10 c-3 -5 -11 -10 -16 -10 -6 0 -7 5 -4 10 3 6 11 10 16 10 6 0 7
-4 4 -10z m-158 -6 c-3 -3 -12 -4 -19 -1 -8 3 -5 6 6 6 11 1 17 -2 13 -5z"/>
<path d="M2140 7553 c-17 -7 -39 -33 -40 -47 0 -5 12 3 26 17 15 15 30 24 35
22 4 -3 10 -1 14 5 7 11 -11 12 -35 3z"/>
<path d="M2476 7475 c-3 -9 0 -15 9 -15 9 0 12 6 9 15 -4 8 -7 15 -9 15 -2 0
-5 -7 -9 -15z"/>
<path d="M2380 7460 c-11 -7 -6 -10 20 -10 26 0 31 3 20 10 -8 5 -17 10 -20
10 -3 0 -12 -5 -20 -10z"/>
<path d="M3023 7375 c9 -23 -8 -26 -47 -10 -41 18 -56 19 -56 5 0 -5 4 -10 9
-10 11 0 55 -37 135 -112 45 -41 66 -70 79 -107 10 -30 24 -51 32 -51 8 0 15
-9 15 -19 0 -11 5 -23 10 -26 22 -14 8 55 -20 96 -33 49 -38 72 -15 62 9 -3
14 -8 11 -11 -3 -2 4 -16 14 -30 11 -13 20 -32 20 -41 0 -14 2 -14 10 -1 8 13
10 13 10 -2 0 -9 5 -20 11 -24 8 -5 10 1 7 20 -3 14 0 33 6 42 10 13 12 9 14
-22 4 -55 12 -55 12 -1 0 26 5 47 10 47 17 0 11 17 -9 23 -11 2 -25 24 -36 56
-14 37 -24 51 -38 51 -10 0 -30 9 -44 20 -14 11 -32 20 -40 20 -8 0 -33 9 -55
20 -50 24 -52 24 -45 5z m21 -51 c4 -10 1 -14 -6 -12 -15 5 -23 28 -10 28 5 0
13 -7 16 -16z m83 -23 c18 -14 33 -32 33 -40 0 -7 -18 3 -42 25 -70 62 -63 72
9 15z m90 -58 c9 -21 19 -42 21 -46 2 -5 -5 -3 -16 4 -23 15 -45 56 -37 70 10
15 14 11 32 -28z m-102 7 c3 -5 1 -10 -4 -10 -6 0 -11 5 -11 10 0 6 2 10 4 10
3 0 8 -4 11 -10z m45 -14 c0 -11 -19 -15 -25 -6 -3 5 1 10 9 10 9 0 16 -2 16
-4z"/>
<path d="M3340 7270 c0 -8 4 -30 9 -48 9 -30 8 -32 -10 -27 -20 7 -27 -9 -9
-20 7 -4 7 -12 0 -25 -12 -22 5 -39 22 -22 15 15 15 112 0 137 -8 14 -11 16
-12 5z"/>
<path d="M3390 7200 c0 -5 5 -10 11 -10 5 0 7 5 4 10 -3 6 -8 10 -11 10 -2 0
-4 -4 -4 -10z"/>
<path d="M1855 7160 l-20 -9 20 1 c11 0 31 4 45 8 l25 8 -25 0 c-14 0 -34 -3
-45 -8z"/>
<path d="M1963 7163 c9 -2 23 -2 30 0 6 3 -1 5 -18 5 -16 0 -22 -2 -12 -5z"/>
<path d="M1120 7149 c0 -5 5 -7 10 -4 6 3 10 8 10 11 0 2 -4 4 -10 4 -5 0 -10
-5 -10 -11z"/>
<path d="M3295 7122 c-4 -23 -12 -45 -16 -48 -13 -8 -11 -42 4 -47 9 -3 9 -8
-2 -21 -12 -14 -12 -16 2 -10 12 4 16 17 15 43 0 20 4 46 10 58 8 14 9 30 3
45 -8 21 -10 19 -16 -20z"/>
<path d="M3380 7138 c0 -19 2 -20 10 -8 13 19 13 30 0 30 -5 0 -10 -10 -10
-22z"/>
<path d="M3426 7124 c-4 -20 -5 -38 -3 -40 3 -3 8 11 11 32 4 20 5 38 3 40 -3
3 -8 -11 -11 -32z"/>
<path d="M4195 7141 c-6 -11 9 -23 19 -14 9 9 7 23 -3 23 -6 0 -12 -4 -16 -9z"/>
<path d="M2190 7120 c0 -12 28 -21 35 -11 2 5 -4 11 -15 14 -11 3 -20 2 -20
-3z"/>
<path d="M2248 7123 c6 -2 18 -2 25 0 6 3 1 5 -13 5 -14 0 -19 -2 -12 -5z"/>
<path d="M3337 7104 c-4 -4 -7 -14 -7 -23 0 -11 3 -12 11 -4 6 6 10 16 7 23
-2 6 -7 8 -11 4z"/>
<path d="M2110 7066 c0 -2 11 -6 25 -8 14 -3 25 -1 25 3 0 5 -11 9 -25 9 -14
0 -25 -2 -25 -4z"/>
<path d="M1658 7053 c6 -2 18 -2 25 0 6 3 1 5 -13 5 -14 0 -19 -2 -12 -5z"/>
<path d="M3355 7049 c-4 -6 -5 -13 -2 -16 7 -7 27 6 27 18 0 12 -17 12 -25 -2z"/>
<path d="M3030 7040 c0 -5 5 -10 10 -10 6 0 10 5 10 10 0 6 -4 10 -10 10 -5 0
-10 -4 -10 -10z"/>
<path d="M2985 7030 c-8 -13 15 -24 27 -12 6 6 4 11 -6 15 -8 3 -18 2 -21 -3z"/>
<path d="M3065 7020 c3 -5 8 -10 11 -10 2 0 4 5 4 10 0 6 -5 10 -11 10 -5 0
-7 -4 -4 -10z"/>
<path d="M2448 7003 c7 -3 16 -2 19 1 4 3 -2 6 -13 5 -11 0 -14 -3 -6 -6z"/>
<path d="M2806 6691 c-13 -15 -31 -21 -58 -21 -31 0 -41 -4 -45 -19 -3 -11
-18 -22 -36 -26 l-32 -7 35 -12 c32 -12 24 -13 -105 -20 -140 -7 -369 -37
-435 -56 -19 -5 -100 -17 -180 -25 -80 -8 -177 -21 -215 -30 -105 -24 -109
-25 -96 -38 16 -16 52 -16 164 -2 80 10 106 10 149 -1 68 -18 94 -18 102 1 3
8 10 15 15 15 6 0 8 -6 6 -12 -3 -7 -1 -19 4 -27 8 -12 12 -12 25 -2 8 7 12
19 9 27 -3 8 0 14 6 14 6 0 11 -9 11 -19 0 -21 29 -36 43 -22 5 5 5 17 -2 29
-10 19 -7 20 37 24 43 4 50 2 83 -29 50 -48 115 -63 243 -57 90 5 104 3 110
-11 5 -14 9 -15 20 -5 11 8 21 9 38 0 21 -10 21 -10 6 3 -24 19 -23 27 3 27
11 0 17 -4 14 -10 -3 -6 4 -10 17 -10 13 0 30 -5 38 -11 12 -8 10 -9 -7 -4
-31 9 -30 -12 1 -26 25 -12 39 -40 27 -55 -3 -5 -17 -9 -31 -9 -17 0 -26 -6
-28 -20 -6 -33 -20 -43 -75 -55 -29 -6 -66 -18 -84 -26 -17 -8 -36 -14 -42
-14 -6 0 -11 -4 -11 -10 0 -13 27 -13 35 0 3 5 32 12 65 16 33 4 60 11 60 17
0 5 7 4 16 -3 12 -11 18 -10 31 3 12 11 22 13 39 6 15 -5 24 -5 24 1 0 6 6 10
13 10 12 0 107 83 107 94 0 2 -17 0 -37 -5 -50 -11 -75 -10 -40 3 15 5 27 14
27 19 0 12 -17 11 -41 -1 -14 -8 -19 -7 -19 2 0 22 17 41 29 34 6 -4 16 -4 22
0 8 5 8 9 -1 14 -7 4 8 10 36 15 33 5 43 9 33 16 -8 5 -24 9 -37 9 -13 0 -21
4 -18 8 6 11 64 3 72 -9 7 -11 45 -11 62 -1 18 12 -9 61 -54 97 -74 59 -72 57
-44 49 14 -4 27 -10 30 -14 9 -12 42 -21 34 -8 -5 8 -2 9 9 5 24 -9 22 16 -3
38 -11 10 -20 24 -20 32 0 7 -7 13 -15 13 -8 0 -15 6 -15 13 0 25 -44 62 -72
59 -21 -3 -27 1 -30 19 l-3 21 -19 -21z m67 -318 c-7 -2 -19 -2 -25 0 -7 3 -2
5 12 5 14 0 19 -2 13 -5z"/>
<path d="M2598 6353 c7 -3 16 -2 19 1 4 3 -2 6 -13 5 -11 0 -14 -3 -6 -6z"/>
<path d="M2500 6340 c0 -5 5 -10 10 -10 6 0 10 5 10 10 0 6 -4 10 -10 10 -5 0
-10 -4 -10 -10z"/>
<path d="M2932 5493 c-12 -2 -20 -8 -17 -13 2 -4 -8 -13 -24 -20 -16 -6 -37
-20 -47 -31 -9 -10 -23 -19 -30 -19 -7 0 -27 -14 -44 -30 -17 -17 -39 -29 -48
-28 -11 2 -17 -3 -16 -14 1 -10 -3 -18 -8 -18 -23 0 -158 -180 -158 -211 0 -5
-4 -9 -10 -9 -5 0 -10 -10 -10 -21 0 -12 -13 -35 -30 -51 -16 -15 -30 -32 -30
-38 0 -5 -9 -14 -20 -20 -11 -6 -20 -16 -20 -22 0 -6 -17 -32 -37 -57 -21 -25
-38 -49 -38 -53 0 -5 -4 -8 -10 -9 -25 -2 -33 -25 -40 -112 -4 -50 -10 -96
-13 -102 -4 -5 -7 -19 -7 -30 0 -11 -8 -30 -16 -43 -13 -18 -14 -32 -6 -80 12
-75 23 -84 36 -31 6 24 28 78 48 119 31 63 59 96 166 203 71 70 135 127 142
127 16 0 135 114 135 128 0 6 7 12 15 16 8 3 15 12 15 20 0 8 11 27 25 42 14
15 25 35 25 46 0 10 7 21 15 24 8 4 13 10 10 14 -7 11 25 90 36 90 5 0 9 13 9
28 0 15 5 33 12 40 6 6 13 22 14 34 2 13 7 44 12 69 8 45 6 70 -6 68 -4 -1
-17 -4 -30 -6z"/>
<path d="M3560 5243 c-26 -9 -153 -60 -194 -78 -23 -9 -35 -20 -28 -24 37 -23
419 35 420 64 0 25 -153 54 -198 38z"/>
<path d="M3890 4930 c0 -5 5 -10 10 -10 6 0 10 5 10 10 0 6 -4 10 -10 10 -5 0
-10 -4 -10 -10z"/>
<path d="M3500 4470 c-28 -6 -20 -7 36 -7 51 0 78 -5 98 -18 17 -11 30 -15 34
-8 14 19 48 26 127 23 44 -1 77 1 74 4 -10 10 -329 15 -369 6z"/>
<path d="M3435 4450 c-4 -7 -18 -9 -31 -6 -30 8 -32 -10 -3 -19 21 -7 59 18
47 30 -3 4 -9 1 -13 -5z"/>
<path d="M3073 4423 c15 -2 37 -2 50 0 12 2 0 4 -28 4 -27 0 -38 -2 -22 -4z"/>
<path d="M2610 4324 c0 -9 5 -14 12 -12 18 6 21 28 4 28 -9 0 -16 -7 -16 -16z"/>
<path d="M3885 3890 c-3 -5 1 -10 10 -10 9 0 13 5 10 10 -3 6 -8 10 -10 10 -2
0 -7 -4 -10 -10z"/>
<path d="M4196 3611 c-3 -5 1 -14 8 -20 12 -10 13 -8 9 8 -6 23 -9 25 -17 12z"/>
<path d="M4290 3170 c0 -5 5 -10 10 -10 6 0 10 5 10 10 0 6 -4 10 -10 10 -5 0
-10 -4 -10 -10z"/>
<path d="M4215 2930 c-3 -5 -1 -10 4 -10 6 0 11 5 11 10 0 6 -2 10 -4 10 -3 0
-8 -4 -11 -10z"/>
<path d="M3275 2541 c-3 -5 -1 -12 5 -16 5 -3 10 1 10 9 0 18 -6 21 -15 7z"/>
<path d="M3380 2510 c-24 -8 -23 -8 8 -9 17 -1 32 4 32 9 0 11 -5 11 -40 0z"/>
<path d="M7395 7926 c-14 -22 -14 -27 1 -65 l17 -42 71 7 c39 4 73 8 75 10 2
2 -2 17 -9 34 -30 73 -122 106 -155 56z"/>
<path d="M7009 7854 c-21 -12 -22 -13 -4 -13 11 0 29 4 39 8 16 6 17 9 5 13
-8 3 -26 0 -40 -8z"/>
<path d="M7525 7800 c3 -5 10 -10 16 -10 5 0 9 5 9 10 0 6 -7 10 -16 10 -8 0
-12 -4 -9 -10z"/>
<path d="M7497 7773 c-14 -13 -6 -30 18 -41 21 -10 27 -9 31 3 13 32 -26 62
-49 38z"/>
<path d="M7590 7770 c0 -5 4 -10 9 -10 6 0 13 5 16 10 3 6 -1 10 -9 10 -9 0
-16 -4 -16 -10z"/>
<path d="M6910 7692 c0 -5 11 -12 25 -15 16 -3 24 0 22 7 -4 14 -47 21 -47 8z"/>
<path d="M7250 7620 c0 -5 7 -10 15 -10 8 0 15 5 15 10 0 6 -7 10 -15 10 -8 0
-15 -4 -15 -10z"/>
<path d="M6658 7513 c7 -3 16 -2 19 1 4 3 -2 6 -13 5 -11 0 -14 -3 -6 -6z"/>
<path d="M6315 7469 c-27 -5 -93 -16 -145 -24 -166 -27 -246 -43 -214 -44 17
-1 97 10 178 24 81 14 162 25 180 25 18 0 37 5 43 11 8 8 17 8 33 -1 18 -10
25 -9 38 4 15 15 13 16 -23 15 -22 -1 -62 -5 -90 -10z"/>
<path d="M5905 7400 c-3 -5 -1 -10 4 -10 6 0 11 5 11 10 0 6 -2 10 -4 10 -3 0
-8 -4 -11 -10z"/>
<path d="M5775 7385 c-48 -13 -48 -14 -10 -10 22 2 58 8 80 13 35 9 37 10 10
10 -16 0 -52 -6 -80 -13z"/>
<path d="M5840 7340 c0 -5 5 -10 10 -10 6 0 10 5 10 10 0 6 -4 10 -10 10 -5 0
-10 -4 -10 -10z"/>
<path d="M4975 5761 c-7 -12 12 -24 25 -16 11 7 4 25 -10 25 -5 0 -11 -4 -15
-9z"/>
<path d="M7300 5096 c0 -24 16 -43 27 -32 8 8 -6 56 -17 56 -6 0 -10 -11 -10
-24z"/>
<path d="M3345 1360 c3 -5 8 -10 11 -10 2 0 4 5 4 10 0 6 -5 10 -11 10 -5 0
-7 -4 -4 -10z"/>
<path d="M4191 714 c0 -11 3 -14 6 -6 3 7 2 16 -1 19 -3 4 -6 -2 -5 -13z"/>
<path d="M4035 690 c-3 -5 -1 -10 4 -10 6 0 11 5 11 10 0 6 -2 10 -4 10 -3 0
-8 -4 -11 -10z"/>
<path d="M4233 8960 c0 -25 2 -35 4 -22 2 12 2 32 0 45 -2 12 -4 2 -4 -23z"/>
<path d="M3053 8793 c9 -2 23 -2 30 0 6 3 -1 5 -18 5 -16 0 -22 -2 -12 -5z"/>
<path d="M8530 8400 c20 -13 40 -13 40 0 0 6 -12 10 -27 10 -22 0 -25 -2 -13
-10z"/>
<path d="M5250 8275 c7 -8 20 -15 29 -15 13 1 13 3 -3 15 -26 19 -42 19 -26 0z"/>
<path d="M8820 7805 c0 -7 30 -13 34 -7 3 4 -4 9 -15 9 -10 1 -19 0 -19 -2z"/>
<path d="M8900 6941 c-29 -5 -35 -10 -35 -31 0 -14 -4 -30 -8 -37 -5 -7 -6
-16 -3 -21 3 -4 6 -49 7 -100 2 -106 12 -127 66 -136 21 -4 46 -9 56 -12 16
-5 17 8 17 170 l0 176 -32 -1 c-18 -1 -49 -5 -68 -8z"/>
<path d="M8635 6365 c-29 -28 -31 -42 -10 -72 32 -46 127 -37 139 13 18 70
-76 113 -129 59z"/>
<path d="M8738 5893 c-26 -7 -22 -22 8 -29 15 -4 30 -17 35 -32 12 -31 2 -100
-17 -120 -8 -7 -14 -22 -14 -32 0 -10 -6 -20 -14 -23 -8 -3 -15 -27 -18 -61
-3 -40 -10 -60 -23 -70 -16 -12 -17 -16 -6 -30 7 -9 11 -16 9 -16 -3 0 -1 -24
3 -52 7 -43 6 -60 -9 -88 -9 -19 -20 -37 -23 -40 -10 -8 -39 -116 -39 -144 0
-15 -5 -35 -11 -45 -18 -28 -3 -68 45 -119 50 -53 72 -52 81 5 4 21 11 51 16
66 5 18 5 36 -1 46 -12 24 5 132 41 261 54 188 81 350 60 350 -15 0 1 52 18
57 15 4 51 55 51 73 0 23 -143 55 -192 43z"/>
<path d="M8830 4831 c0 -5 9 -28 20 -52 11 -24 20 -56 20 -71 0 -39 17 -43 25
-6 4 18 10 37 13 42 3 5 7 29 9 53 l4 43 -46 0 c-25 0 -45 -4 -45 -9z"/>
</g>
</svg>
